<svg xmlns="http://www.w3.org/2000/svg" viewBox="6 14 108 88" fill="none">
  <defs>
    <mask id="fav-loose" maskUnits="userSpaceOnUse" x="-14" y="-14" width="148" height="144"><rect x="-14" y="-14" width="148" height="144" fill="#fff"></rect><ellipse cx="46" cy="70" rx="30" ry="27" transform="rotate(-8 46 70)" fill="none" stroke="#000" stroke-width="11" stroke-linecap="round"></ellipse></mask>
    <mask id="fav-elastic" maskUnits="userSpaceOnUse" x="-14" y="-14" width="148" height="144"><rect x="-14" y="-14" width="148" height="144" fill="#fff"></rect><ellipse cx="62" cy="40" rx="22" ry="20" fill="none" stroke="#000" stroke-width="11" stroke-linecap="round"></ellipse></mask>
    <mask id="fav-tight" maskUnits="userSpaceOnUse" x="-14" y="-14" width="148" height="144"><rect x="-14" y="-14" width="148" height="144" fill="#fff"></rect><ellipse cx="76" cy="70" rx="38" ry="34" transform="rotate(10 76 70)" fill="none" stroke="#000" stroke-width="11" stroke-linecap="round"></ellipse></mask>
  </defs>
  <ellipse cx="76" cy="70" rx="38" ry="34" transform="rotate(10 76 70)" fill="none" stroke="#000" stroke-width="8" stroke-linecap="round" mask="url(#fav-loose)"></ellipse>
  <ellipse cx="46" cy="70" rx="30" ry="27" transform="rotate(-8 46 70)" fill="none" stroke="#000" stroke-width="8" stroke-linecap="round" mask="url(#fav-elastic)"></ellipse>
  <ellipse cx="62" cy="40" rx="22" ry="20" fill="none" stroke="#000" stroke-width="8" stroke-linecap="round" mask="url(#fav-tight)"></ellipse>
</svg>